<svg xmlns="http://www.w3.org/2000/svg" width="15.34" height="15.341" viewBox="0 0 15.34 15.341">
  <path id="Path_6137" data-name="Path 6137" d="M16.573,5.068H12.738V3.787A1.856,1.856,0,0,0,10.821,2H8.52A1.856,1.856,0,0,0,6.6,3.787V5.068H2.767a.767.767,0,1,0,0,1.534h.767v8.437a2.3,2.3,0,0,0,2.3,2.3h7.67a2.3,2.3,0,0,0,2.3-2.3V6.6h.767a.767.767,0,1,0,0-1.534Zm-8.437,7.67a.767.767,0,1,1-1.534,0V9.67a.767.767,0,0,1,1.534,0Zm0-8.951c0-.123.161-.253.384-.253h2.3c.222,0,.384.13.384.253V5.068H8.136Zm4.6,8.951a.767.767,0,1,1-1.534,0V9.67a.767.767,0,0,1,1.534,0Z" transform="translate(-2 -1.999)" fill="#10b582"/>
</svg>
